<svg width="10" height="11" fill="none" xmlns="http://www.w3.org/2000/svg"><g opacity=".3" fill="#fff"><path fill-rule="evenodd" clip-rule="evenodd" d="M7 6.5a2 2 0 010-2.98l1.83-1.65a.5.5 0 10-.67-.75L5.93 3.15a2 2 0 01-2.67 0L1.83 1.87a.5.5 0 00-.67.75l1.07.95c.86.77.86 2.1 0 2.87l-1.06.95a.5.5 0 00.67.75l1.4-1.27a2 2 0 012.68 0l2.25 2.01c.2.19.52.17.7-.04a.5.5 0 00-.04-.7L7 6.5z"/><path d="M8.83 8.14l.67-.75-.67.75zm-.66.74l-.67.75.67-.75zM5.92 6.87l-.67.75.67-.75zm-4.75.52l.66.75-.66-.75zm7-6.26l.66.74-.66-.74zm.66.74l.67.75-.67-.75zm-.66-.74L6.33 2.77l1.33 1.49L9.5 2.62l-1.33-1.5zM6.58 3.89l2.25-2.02L7.5.38 5.25 2.4l1.33 1.49zM1.17 2.62l1.41 1.27 1.34-1.5L2.5 1.14 1.17 2.62zm1.73.2l-1.07-.95L.5 3.37l1.06.94L2.9 2.82zM1.83 8.14l1.07-.95-1.34-1.5-1.06.96 1.33 1.49zm.75-2.01L1.17 7.39 2.5 8.9l1.42-1.27-1.34-1.5zm6.25 2l-2.25-2-1.33 1.49 2.25 2 1.33-1.48zm-2.5-.89l1.84 1.64L9.5 7.4 7.66 5.75l-1.33 1.5zm3.29 2.27A1.5 1.5 0 009.5 7.4L8.17 8.9a.5.5 0 01-.04-.71L9.62 9.5zm-2.12.12c.62.55 1.56.5 2.12-.12l-1.5-1.33a.5.5 0 01.71-.04L7.5 9.63zM3.92 7.62a1 1 0 011.33 0l1.33-1.5a3 3 0 00-4 0l1.34 1.5zM.38 8.77c.55.61 1.5.67 2.12.11L1.17 7.4a.5.5 0 01.7.04L.38 8.77zM.5 6.65a1.5 1.5 0 00-.12 2.12l1.5-1.34a.5.5 0 01-.05.7L.5 6.66zM1.56 4.3a.93.93 0 010 1.39L2.9 7.19a2.93 2.93 0 000-4.37l-1.34 1.5zM.38 1.24A1.5 1.5 0 00.5 3.36l1.33-1.49c.2.19.23.5.04.7L.38 1.25zm2.12-.11a1.5 1.5 0 00-2.12.11l1.5 1.34a.5.5 0 01-.71.04l1.33-1.5zM5.25 2.4a1 1 0 01-1.33 0L2.58 3.89a3 3 0 004 0l-1.33-1.5zM9.62.5A1.5 1.5 0 007.5.38l1.33 1.5a.5.5 0 01-.7-.05L9.62.5zM6.33 2.77a3 3 0 000 4.47l1.33-1.49a1 1 0 010-1.49L6.33 2.77zm3.17-.15c.62-.55.67-1.5.12-2.12l-1.5 1.33a.5.5 0 01.05-.7L9.5 2.62z"/></g></svg>