<svg width="10" height="11" viewBox="0 0 10 11" fill="none" xmlns="http://www.w3.org/2000/svg">
<g opacity="0.3">
<path fill-rule="evenodd" clip-rule="evenodd" d="M6.99742 6.49544C6.10935 5.70047 6.10935 4.31009 6.99742 3.51512L8.83235 1.87255C9.0381 1.68837 9.05558 1.37227 8.8714 1.16652C8.68722 0.960769 8.37112 0.943284 8.16538 1.12746L5.91705 3.1401C5.15765 3.81989 4.00854 3.81989 3.24915 3.1401L1.83349 1.87285C1.62774 1.68867 1.31164 1.70615 1.12746 1.9119C0.943285 2.11765 0.960769 2.43375 1.16652 2.61793L2.22965 3.56961C3.08524 4.33552 3.08524 5.67505 2.22965 6.44095L1.16652 7.39264C0.960769 7.57682 0.943285 7.89292 1.12746 8.09866C1.31164 8.30441 1.62774 8.3219 1.83349 8.13772L3.24915 6.87046C4.00854 6.19068 5.15765 6.19068 5.91705 6.87046L8.16538 8.8831C8.37112 9.06728 8.68722 9.0498 8.8714 8.84405C9.05558 8.6383 9.0381 8.3222 8.83235 8.13802L6.99742 6.49544Z" fill="#032D3D"/>
<path d="M8.83235 8.13802L9.49932 7.39294L8.83235 8.13802ZM8.16538 8.8831L7.4984 9.62818L8.16538 8.8831ZM5.91705 6.87046L5.25007 7.61554L5.91705 6.87046ZM1.16652 7.39264L1.83349 8.13772L1.16652 7.39264ZM8.16538 1.12746L8.83235 1.87255L8.16538 1.12746ZM8.83235 1.87255L9.49932 2.61763L8.83235 1.87255ZM8.16537 1.12746L6.33044 2.77004L7.66439 4.2602L9.49932 2.61763L8.16537 1.12746ZM6.58402 3.88518L8.83235 1.87255L7.4984 0.382384L5.25007 2.39502L6.58402 3.88518ZM1.16652 2.61793L2.58217 3.88518L3.91612 2.39502L2.50047 1.12777L1.16652 2.61793ZM2.89662 2.82453L1.83349 1.87285L0.499543 3.36301L1.56267 4.31469L2.89662 2.82453ZM1.83349 8.13772L2.89662 7.18603L1.56267 5.69587L0.499543 6.64756L1.83349 8.13772ZM2.58217 6.12538L1.16652 7.39264L2.50047 8.8828L3.91612 7.61554L2.58217 6.12538ZM8.83235 8.13802L6.58402 6.12538L5.25007 7.61554L7.4984 9.62818L8.83235 8.13802ZM6.33044 7.24052L8.16538 8.8831L9.49932 7.39294L7.66439 5.75036L6.33044 7.24052ZM9.61648 9.51102C10.169 8.89378 10.1166 7.94548 9.49932 7.39294L8.16538 8.8831C7.95963 8.69892 7.94214 8.38282 8.12632 8.17707L9.61648 9.51102ZM7.4984 9.62818C8.11565 10.1807 9.06394 10.1283 9.61648 9.51102L8.12632 8.17707C8.3105 7.97132 8.6266 7.95384 8.83235 8.13802L7.4984 9.62818ZM3.91612 7.61554C4.29582 7.27565 4.87038 7.27565 5.25007 7.61554L6.58402 6.12538C5.44493 5.1057 3.72126 5.1057 2.58217 6.12538L3.91612 7.61554ZM0.382384 8.76564C0.934923 9.38288 1.88322 9.43534 2.50047 8.8828L1.16652 7.39264C1.37227 7.20846 1.68837 7.22594 1.87255 7.43169L0.382384 8.76564ZM0.499543 6.64756C-0.117702 7.2001 -0.170156 8.14839 0.382384 8.76564L1.87255 7.43169C2.05673 7.63744 2.03924 7.95354 1.83349 8.13772L0.499543 6.64756ZM1.56267 4.31469C1.97423 4.68311 1.97423 5.32746 1.56267 5.69587L2.89662 7.18603C4.19625 6.02265 4.19625 3.98792 2.89662 2.82453L1.56267 4.31469ZM0.382384 1.24493C-0.170157 1.86217 -0.117701 2.81047 0.499543 3.36301L1.83349 1.87285C2.03924 2.05703 2.05673 2.37313 1.87255 2.57888L0.382384 1.24493ZM2.50047 1.12777C1.88322 0.575228 0.934923 0.627682 0.382384 1.24493L1.87255 2.57888C1.68837 2.78462 1.37227 2.80211 1.16652 2.61793L2.50047 1.12777ZM5.25007 2.39502C4.87038 2.73491 4.29582 2.73491 3.91612 2.39502L2.58217 3.88518C3.72126 4.90486 5.44493 4.90486 6.58402 3.88518L5.25007 2.39502ZM9.61648 0.499544C9.06394 -0.117701 8.11565 -0.170157 7.4984 0.382384L8.83235 1.87255C8.6266 2.05673 8.3105 2.03924 8.12632 1.83349L9.61648 0.499544ZM6.33044 2.77004C4.99834 3.9625 4.99834 6.04807 6.33044 7.24052L7.66439 5.75036C7.22036 5.35288 7.22036 4.65769 7.66439 4.2602L6.33044 2.77004ZM9.49932 2.61763C10.1166 2.06509 10.169 1.11679 9.61648 0.499544L8.12632 1.83349C7.94214 1.62774 7.95963 1.31164 8.16537 1.12746L9.49932 2.61763Z" fill="#032D3D"/>
</g>
</svg>
